<?xml version="1.0" standalone="no"?>
<!DOCTYPE svg PUBLIC "-//W3C//DTD SVG 20010904//EN"
 "http://www.w3.org/TR/2001/REC-SVG-20010904/DTD/svg10.dtd">
<svg version="1.0" xmlns="http://www.w3.org/2000/svg"
 width="820.000000pt" height="467.000000pt" viewBox="0 0 820.000000 467.000000"
 preserveAspectRatio="xMidYMid meet">
<metadata>
Created by potrace 1.16, written by Peter Selinger 2001-2019
</metadata>
<g transform="translate(0.000000,467.000000) scale(0.100000,-0.100000)"
fill="#000000" stroke="none">
<path d="M6040 4267 c0 -3 19 -36 42 -73 58 -96 99 -193 179 -431 39 -112 81
-229 94 -258 49 -112 157 -241 223 -266 138 -53 320 92 338 270 13 124 -57
270 -201 416 -137 139 -308 246 -483 305 -82 27 -192 49 -192 37z"/>
<path d="M4150 3739 c-272 -32 -398 -160 -440 -448 -23 -160 -5 -428 46 -683
14 -71 24 -131 22 -134 -3 -2 -31 5 -63 16 -280 96 -657 60 -962 -94 -690
-346 -1031 -1139 -749 -1740 124 -264 362 -450 674 -528 117 -30 374 -32 502
-4 283 61 535 196 748 401 94 90 201 218 243 292 16 27 15 30 -10 70 l-26 42
-65 -97 c-130 -196 -359 -396 -580 -507 -255 -128 -549 -167 -800 -105 -258
64 -478 236 -593 467 -71 142 -100 268 -100 438 1 252 77 486 234 715 315 461
896 708 1376 584 74 -19 191 -64 202 -78 5 -6 23 -60 39 -121 73 -263 186
-592 312 -905 95 -235 120 -293 126 -287 6 6 31 463 44 790 13 361 13 957 -1
1128 -6 73 -17 165 -25 203 -11 54 -12 71 -2 77 53 33 470 44 738 20 412 -37
949 -120 1505 -233 193 -38 361 -72 375 -74 56 -9 -363 171 -700 301 -764 294
-1359 458 -1793 494 -143 12 -169 12 -277 0z"/>
<path d="M4567 2809 c-4 -101 -10 -211 -13 -244 l-6 -60 89 -21 c191 -47 329
-112 355 -169 9 -21 4 -41 -31 -130 -35 -90 -173 -479 -195 -552 -4 -13 -4
-23 1 -22 4 0 49 46 100 103 322 357 491 569 508 639 27 105 -183 378 -389
506 -100 62 -254 119 -349 128 l-64 6 -6 -184z"/>
<path d="M6960 2540 c-491 -47 -959 -373 -1194 -829 -237 -463 -192 -969 118
-1298 135 -143 292 -232 504 -285 73 -19 115 -22 257 -22 148 0 185 4 283 27
272 63 531 209 736 413 466 465 572 1138 251 1589 -49 69 -169 187 -235 232
-195 132 -466 197 -720 173z m307 -105 c507 -97 814 -559 728 -1095 -106 -652
-739 -1176 -1384 -1147 -148 7 -260 32 -377 87 -360 167 -558 521 -523 934 26
306 164 593 399 826 325 324 757 471 1157 395z"/>
<path d="M2095 2410 c-3 -5 6 -27 20 -47 30 -46 32 -83 4 -140 -28 -58 -87
-93 -157 -93 -28 0 -99 12 -159 26 -90 22 -124 26 -206 22 l-98 -5 23 25 c27
28 197 143 251 168 20 10 37 24 37 31 0 18 -1 18 -91 -27 -115 -58 -162 -75
-274 -99 -128 -27 -193 -26 -280 3 -38 14 -72 22 -74 20 -7 -6 15 -47 42 -79
33 -40 99 -72 189 -92 59 -14 134 -17 394 -17 l321 -1 39 27 c63 45 89 91 89
162 0 49 -5 67 -24 94 -26 34 -36 38 -46 22z"/>
<path d="M1638 2016 c-3 -16 1 -31 9 -38 42 -34 55 -119 29 -181 -17 -40 -60
-83 -108 -108 -57 -29 -183 -26 -277 6 -40 13 -119 35 -175 49 -137 33 -207
61 -239 94 l-27 28 82 -4 c67 -3 96 0 148 18 88 29 210 105 210 131 0 18 -3
18 -52 -7 -119 -60 -223 -79 -308 -54 -19 6 -75 13 -125 17 -102 6 -179 -9
-267 -53 -54 -27 -158 -101 -158 -113 0 -3 41 -4 90 -2 169 6 354 -23 595 -95
83 -24 182 -51 220 -59 93 -20 235 -19 282 0 91 38 150 115 160 208 7 68 -8
114 -51 156 l-33 32 -5 -25z"/>
<path d="M1664 1596 c-4 -16 -3 -34 2 -41 63 -84 69 -99 68 -159 -1 -101 -74
-208 -152 -222 -62 -12 -203 5 -312 37 -123 36 -322 63 -399 54 -29 -4 -73
-13 -97 -20 -24 -7 -44 -9 -44 -4 0 17 115 100 215 156 200 112 253 146 259
167 12 46 7 48 -41 20 -107 -62 -292 -151 -358 -171 -126 -38 -199 -46 -357
-40 -81 3 -148 2 -148 -2 0 -19 62 -91 108 -125 68 -49 197 -109 307 -141 135
-39 229 -42 421 -11 121 19 198 26 308 26 171 0 192 6 254 74 52 56 78 112 88
184 10 76 -10 134 -67 196 l-47 51 -8 -29z"/>
<path d="M235 1069 c60 -103 107 -137 231 -170 93 -25 283 -29 689 -16 l250 9
45 -24 c64 -33 60 -54 -18 -94 -121 -61 -161 -67 -542 -74 -377 -7 -400 -11
-508 -72 -81 -46 -144 -116 -206 -229 -31 -56 -56 -106 -56 -110 0 -5 17 3 37
17 64 44 128 73 210 95 67 19 95 21 208 16 160 -6 244 -27 523 -132 323 -120
355 -129 507 -129 130 -1 132 -1 198 33 103 52 211 174 180 204 -3 4 -27 -12
-52 -36 -88 -82 -192 -117 -354 -117 -171 0 -321 38 -523 135 -121 57 -240
133 -304 194 -45 43 -53 67 -17 57 111 -32 173 -39 322 -40 261 0 443 52 624
181 61 44 63 47 57 82 -17 110 -180 135 -586 90 -429 -47 -670 -21 -840 90
-86 57 -84 55 -75 40z"/>
</g>
</svg>
