<?xml version="1.0" standalone="no"?>
<!DOCTYPE svg PUBLIC "-//W3C//DTD SVG 20010904//EN"
 "http://www.w3.org/TR/2001/REC-SVG-20010904/DTD/svg10.dtd">
<svg version="1.0" xmlns="http://www.w3.org/2000/svg"
 width="380.000000pt" height="245.000000pt" viewBox="0 0 380.000000 245.000000"
 preserveAspectRatio="xMidYMid meet">
<metadata>
Created by potrace 1.16, written by Peter Selinger 2001-2019
</metadata>
<g transform="translate(0.000000,245.000000) scale(0.100000,-0.100000)"
fill="#000000" stroke="none">
<path d="M2634 1995 c-76 -16 -180 -57 -263 -103 -61 -34 -221 -147 -221 -157
0 -2 37 18 81 45 94 57 256 123 346 140 34 7 102 11 151 8 76 -3 100 -9 157
-37 71 -35 116 -88 131 -155 7 -31 7 -31 15 -6 23 81 -2 186 -56 228 -63 50
-210 66 -341 37z"/>
<path d="M2640 1860 c-27 -6 -30 -8 -11 -9 45 -2 111 -42 138 -82 19 -29 27
-56 31 -107 20 -286 -338 -748 -723 -933 -126 -60 -233 -84 -314 -69 -65 12
-96 32 -130 84 l-25 36 -38 -37 c-32 -31 -38 -44 -38 -78 0 -102 62 -189 153
-214 64 -18 194 -9 277 19 146 49 348 169 471 278 40 37 59 48 70 41 19 -12
82 -11 116 2 70 26 97 74 124 215 17 87 27 116 60 167 158 244 201 500 104
616 -50 58 -174 92 -265 71z"/>
<path d="M1896 1645 c-81 -55 -89 -77 -141 -390 -20 -121 -39 -226 -41 -232
-3 -10 -76 -13 -324 -13 l-320 0 0 23 c0 12 24 155 54 317 29 162 51 298 49
303 -8 13 -253 8 -258 -5 -3 -7 -36 -191 -75 -408 -38 -217 -73 -407 -76 -422
l-6 -28 384 0 383 0 88 93 88 92 -5 -45 c-4 -25 -9 -67 -13 -93 l-6 -48 119 3
119 3 41 235 c23 129 43 243 45 254 3 14 41 -21 163 -148 87 -91 164 -166 171
-166 7 0 52 41 100 91 l88 91 -75 76 c-41 43 -112 117 -159 167 -249 265 -252
267 -305 272 -41 4 -55 1 -88 -22z"/>
<path d="M2615 1648 c-6 -20 -84 -472 -82 -475 5 -5 85 112 129 190 50 87 85
181 95 253 l6 44 -72 0 c-48 0 -73 -4 -76 -12z"/>
</g>
</svg>
